<svg xmlns="http://www.w3.org/2000/svg" viewBox="0 0 434 380"><defs><style>.cls-1{fill:#231f20}.cls-2{fill:#ee4c2a}.cls-3{fill:#ef502a}.cls-4{fill:#ef542b}.cls-5{fill:#ef572b}.cls-6{fill:#ef5b2c}.cls-7{fill:#ef5e2c}.cls-8{fill:#ef612c}.cls-9{fill:#f0652d}.cls-10{fill:#f0682d}.cls-11{fill:#f06b2e}.cls-12{fill:#f06e2e}.cls-13{fill:#f0712f}.cls-14{fill:#f1742f}.cls-15{fill:#f17730}.cls-16{fill:#f17931}.cls-17{fill:#f17c31}.cls-18{fill:#f17f32}.cls-19{fill:#f28132}.cls-20{fill:#f28433}.cls-21{fill:#f28733}.cls-22{fill:#f28934}.cls-23{fill:#f28c34}.cls-24{fill:#f38e35}.cls-25{fill:#f39136}.cls-26{fill:#f39436}.cls-27{fill:#f39637}.cls-28{fill:#f49938}.cls-29{fill:#f49c38}.cls-30{fill:#f49e39}.cls-31{fill:#f4a139}.cls-32{fill:#f5a43a}.cls-33{fill:#f5a63b}.cls-34{fill:#f5a93b}.cls-35{fill:#f6ac3c}.cls-36{fill:#f6af3d}.cls-37{fill:#f6b13d}.cls-38{fill:#f7b43e}.cls-39{fill:#f7b73f}.cls-40{fill:#f7ba3f}.cls-41{fill:#f8bc40}.cls-42{fill:#f8bf41}.cls-43{fill:#f8c242}.cls-44{fill:#f8c542}.cls-45{fill:#f9c743}.cls-46{fill:#f9ca44}.cls-47{fill:#facd44}.cls-48{fill:#fad045}.cls-49{fill:#fad246}.cls-50{fill:#fad546}.cls-51{fill:#fbd847}.cls-52{fill:#fbda48}.cls-53{fill:#fcdd49}</style></defs><g id="Layer_5" data-name="Layer 5"><path d="M98,312.46c-17.79,0-31.36-13.47-31.31-33.2,0-19.53,13.27-33.4,31.57-33.36,17.79,0,31.36,13.37,31.31,33.11C129.56,298.53,116.34,312.51,98,312.46Zm0-60.73c-14.32,0-24.67,11-24.71,27.14,0,16.46,10.46,27.73,25,27.77,14.21,0,24.56-11.09,24.6-27.24C123,262.94,112.6,251.77,98.09,251.73Z" class="cls-1"/><path d="M162.11,263.44c12.68,0,20.94,10.07,20.9,24.28,0,14.52-9.67,24.93-23.17,24.89a30.15,30.15,0,0,1-11.44-2.48l-.06,24.95-6.34,0,.17-70.85,6.34-1.32s0,5.93,0,6.24A20.13,20.13,0,0,1,162.11,263.44Zm-13.69,39.74a19.59,19.59,0,0,0,11.74,3.71c10,0,16.28-8,16.31-19.08,0-10.84-5.89-18.52-15.39-18.55a18.9,18.9,0,0,0-12.59,5.19C148.49,274.14,148.42,303.18,148.42,303.18Z" class="cls-1"/><path d="M219.89,305.81c-3.18,3.88-8.2,6.93-13.72,6.92-8.59,0-14.81-5.56-14.79-13,0-8.49,6.68-15.43,28.46-16.6,0,0,0-2.45,0-2.76,0-7.36-3.25-11.15-11-11.17-5.11,0-11.35,2.63-15.35,5.58l-1.41-5.93a33,33,0,0,1,17.39-5.58c10.84,0,16.86,4.95,16.73,16.81,0,.3-.06,22.49-.06,22.49,0,3.38.6,4.81,4.69,4.72l-.42,5.21c-6.13.39-9.5-2.07-10.2-6.67Zm-.06-18.41C203.77,289.2,198,292.77,198,299c0,5,4.07,8.19,9.6,8.2,5,0,9.31-2.84,12.18-6.11Z" class="cls-1"/><path d="M260.05,312.86c-14.11,0-22.88-10.18-22.84-24.7s9.77-24.82,23.06-24.79a26.67,26.67,0,0,1,14.61,4l-1.64,5.72a23.75,23.75,0,0,0-13-3.82c-10.12,0-16.48,7.53-16.51,18.67,0,11.46,6.6,18.94,16.52,19a24.27,24.27,0,0,0,13-3.85l1.32,5.83A28.09,28.09,0,0,1,260.05,312.86Z" class="cls-1"/><path d="M291.86,264.78,291.79,295c0,8.18,3.24,11.87,10.09,11.89,5.42,0,10.64-2.73,14.43-6.61l.09-35.48,6.34,0-.12,46.82L316.28,313l0-7.57c-4.82,4.9-11,7.54-16.17,7.53-9.1,0-14.71-5.87-14.69-16.09l.08-32.1Z" class="cls-1"/><path d="M349.71,313.08a29.82,29.82,0,0,1-15.33-4.23l1.76-5.82a25.68,25.68,0,0,0,13.79,4.33c5.62,0,10.54-2.74,10.55-7.85,0-5.63-5.91-7.28-11.74-9.13-6.43-2-13.58-5.15-13.56-13.33,0-8.48,7.09-13.47,15.88-13.45a31.93,31.93,0,0,1,14.2,3.51l-1.85,5.72a27.85,27.85,0,0,0-12.77-3.51c-5.73,0-9.42,2.64-9.43,7.14,0,5.31,5.51,7,11.53,8.82,6.64,2,13.79,5,13.77,13.73S359.12,313.1,349.71,313.08Z" class="cls-1"/><circle cx="191.54" cy="122.85" r="14.14" class="cls-2"/><circle cx="186.9" cy="137.81" r="13.93" class="cls-3"/><circle cx="195.13" cy="151.3" r="13.73" class="cls-4"/><circle cx="210.33" cy="155.24" r="13.52" class="cls-5"/><circle cx="224.45" cy="148.13" r="13.32" class="cls-6"/><circle cx="231.11" cy="133.56" r="13.11" class="cls-7"/><circle cx="228.24" cy="118.19" r="12.91" class="cls-8"/><circle cx="216.58" cy="106.77" r="12.7" class="cls-9"/><circle cx="201.2" cy="103.17" r="12.5" class="cls-10"/><circle cx="186.12" cy="107.65" r="12.29" class="cls-11"/><circle cx="174.79" cy="119.57" r="12.09" class="cls-12"/><circle cx="170.19" cy="134.79" r="11.88" class="cls-13"/><circle cx="172.51" cy="150.33" r="11.68" class="cls-14"/><circle cx="181.61" cy="163.73" r="11.47" class="cls-15"/><circle cx="195.6" cy="172.3" r="11.26" class="cls-16"/><circle cx="211.19" cy="174.88" r="11.06" class="cls-17"/><circle cx="226.6" cy="171.57" r="10.85" class="cls-18"/><circle cx="240.04" cy="162.5" r="10.65" class="cls-19"/><circle cx="249.51" cy="148.91" r="10.44" class="cls-20"/><circle cx="253.86" cy="133.59" r="10.24" class="cls-21"/><circle cx="253.15" cy="117.86" r="10.03" class="cls-22"/><circle cx="247.48" cy="103.02" r="9.83" class="cls-23"/><circle cx="236.91" cy="90.36" r="9.62" class="cls-24"/><circle cx="223.02" cy="81.48" r="9.42" class="cls-25"/><circle cx="207.72" cy="76.97" r="9.22" class="cls-26"/><circle cx="191.95" cy="76.77" r="9.01" class="cls-27"/><circle cx="176.67" cy="80.83" r="8.81" class="cls-28"/><circle cx="162.8" cy="89.1" r="8.6" class="cls-29"/><circle cx="151.36" cy="101.32" r="8.4" class="cls-30"/><circle cx="143.5" cy="115.64" r="8.19" class="cls-31"/><circle cx="139.36" cy="131.03" r="7.99" class="cls-32"/><circle cx="138.91" cy="146.8" r="7.78" class="cls-33"/><circle cx="142.09" cy="162.28" r="7.58" class="cls-34"/><circle cx="148.88" cy="176.77" r="7.38" class="cls-35"/><circle cx="159.22" cy="189.58" r="7.17" class="cls-36"/><circle cx="172.45" cy="199.86" r="6.97" class="cls-37"/><circle cx="187.05" cy="206.96" r="6.77" class="cls-38"/><circle cx="202.49" cy="210.88" r="6.56" class="cls-39"/><circle cx="218.26" cy="211.65" r="6.36" class="cls-40"/><circle cx="233.88" cy="209.32" r="6.16" class="cls-41"/><circle cx="248.83" cy="203.91" r="5.95" class="cls-42"/><circle cx="262.63" cy="195.44" r="5.75" class="cls-43"/><circle cx="274.76" cy="183.97" r="5.55" class="cls-44"/><circle cx="284.49" cy="170.42" r="5.35" class="cls-45"/><circle cx="291.48" cy="155.79" r="5.15" class="cls-46"/><circle cx="295.77" cy="140.41" r="4.95" class="cls-47"/><circle cx="297.38" cy="124.67" r="4.74" class="cls-48" transform="translate(-21.26 174.16) rotate(-31.57)"/><circle cx="296.32" cy="108.93" r="4.54" class="cls-49" transform="translate(1.21 221.08) rotate(-40.99)"/><circle cx="292.62" cy="93.53" r="4.35" class="cls-50" transform="translate(33.61 258.73) rotate(-50.26)"/><circle cx="286.3" cy="78.87" r="4.15" class="cls-51" transform="translate(73.03 285.51) rotate(-59.5)"/><circle cx="277.38" cy="65.28" r="3.95" class="cls-52" transform="translate(116.19 300.27) rotate(-68.79)"/><circle cx="265.9" cy="53.14" r="3.75" class="cls-53" transform="translate(159.27 302.45) rotate(-78.15)"/><circle cx="203.97" cy="133.13" r="24.81" class="cls-2"/></g></svg>