<svg xmlns="http://www.w3.org/2000/svg" viewBox="0 0 32 32"><defs><style>.cls-1{fill:#ee4c2a}.cls-2{fill:#ef502a}.cls-3{fill:#ef542b}.cls-4{fill:#ef572b}.cls-5{fill:#ef5b2c}.cls-6{fill:#ef5e2c}.cls-7{fill:#ef612c}.cls-8{fill:#f0652d}.cls-9{fill:#f0682d}.cls-10{fill:#f06b2e}.cls-11{fill:#f06e2e}.cls-12{fill:#f0712f}.cls-13{fill:#f1742f}.cls-14{fill:#f17730}.cls-15{fill:#f17931}.cls-16{fill:#f17c31}.cls-17{fill:#f17f32}.cls-18{fill:#f28132}.cls-19{fill:#f28433}.cls-20{fill:#f28733}.cls-21{fill:#f28934}.cls-22{fill:#f28c34}.cls-23{fill:#f38e35}.cls-24{fill:#f39136}.cls-25{fill:#f39436}.cls-26{fill:#f39637}.cls-27{fill:#f49938}.cls-28{fill:#f49c38}.cls-29{fill:#f49e39}.cls-30{fill:#f4a139}.cls-31{fill:#f5a43a}.cls-32{fill:#f5a63b}.cls-33{fill:#f5a93b}.cls-34{fill:#f6ac3c}.cls-35{fill:#f6af3d}.cls-36{fill:#f6b13d}.cls-37{fill:#f7b43e}.cls-38{fill:#f7b73f}.cls-39{fill:#f7ba3f}.cls-40{fill:#f8bc40}.cls-41{fill:#f8bf41}.cls-42{fill:#f8c242}.cls-43{fill:#f8c542}.cls-44{fill:#f9c743}.cls-45{fill:#f9ca44}.cls-46{fill:#facd44}.cls-47{fill:#fad045}.cls-48{fill:#fad246}.cls-49{fill:#fad546}.cls-50{fill:#fbd847}.cls-51{fill:#fbda48}.cls-52{fill:#fcdd49}</style></defs><g id="Layer_5" data-name="Layer 5"><circle cx="11.46" cy="14.03" r="2.56" class="cls-1"/><circle cx="10.62" cy="16.74" r="2.53" class="cls-2"/><circle cx="12.11" cy="19.19" r="2.49" class="cls-3"/><circle cx="14.87" cy="19.9" r="2.45" class="cls-4"/><circle cx="17.43" cy="18.62" r="2.41" class="cls-5"/><circle cx="18.63" cy="15.97" r="2.38" class="cls-6"/><circle cx="18.11" cy="13.19" r="2.34" class="cls-7"/><circle cx="16" cy="11.12" r="2.3" class="cls-8"/><circle cx="13.21" cy="10.47" r="2.27" class="cls-9"/><circle cx="10.48" cy="11.28" r="2.23" class="cls-10"/><circle cx="8.42" cy="13.44" r="2.19" class="cls-11"/><circle cx="7.59" cy="16.2" r="2.15" class="cls-12"/><circle cx="8.01" cy="19.01" r="2.12" class="cls-13"/><circle cx="9.66" cy="21.44" r="2.08" class="cls-14"/><circle cx="12.2" cy="23" r="2.04" class="cls-15"/><circle cx="15.02" cy="23.46" r="2" class="cls-16"/><circle cx="17.82" cy="22.87" r="1.97" class="cls-17"/><circle cx="20.25" cy="21.22" r="1.93" class="cls-18"/><circle cx="21.97" cy="18.76" r="1.89" class="cls-19"/><circle cx="22.76" cy="15.98" r="1.86" class="cls-20"/><circle cx="22.63" cy="13.13" r="1.82" class="cls-21"/><circle cx="21.6" cy="10.44" r="1.78" class="cls-22"/><circle cx="19.69" cy="8.14" r="1.74" class="cls-23"/><circle cx="17.17" cy="6.53" r="1.71" class="cls-24"/><circle cx="14.39" cy="5.71" r="1.67" class="cls-25"/><circle cx="11.54" cy="5.68" r="1.63" class="cls-26"/><circle cx="8.76" cy="6.42" r="1.6" class="cls-27"/><circle cx="6.25" cy="7.91" r="1.56" class="cls-28"/><circle cx="4.18" cy="10.13" r="1.52" class="cls-29"/><circle cx="2.75" cy="12.73" r="1.49" class="cls-30"/><circle cx="2" cy="15.52" r="1.45" class="cls-31"/><circle cx="1.92" cy="18.38" r="1.41" class="cls-32"/><circle cx="2.5" cy="21.18" r="1.37" class="cls-33"/><circle cx="3.73" cy="23.81" r="1.34" class="cls-34"/><circle cx="5.6" cy="26.13" r="1.3" class="cls-35"/><circle cx="8" cy="27.99" r="1.26" class="cls-36"/><circle cx="10.65" cy="29.28" r="1.23" class="cls-37"/><circle cx="13.44" cy="29.99" r="1.19" class="cls-38"/><circle cx="16.3" cy="30.13" r="1.15" class="cls-39"/><circle cx="19.14" cy="29.71" r="1.12" class="cls-40"/><circle cx="21.85" cy="28.73" r="1.08" class="cls-41"/><circle cx="24.35" cy="27.19" r="1.04" class="cls-42"/><circle cx="26.55" cy="25.11" r="1.01" class="cls-43"/><circle cx="28.31" cy="22.66" r=".97" class="cls-44"/><circle cx="29.58" cy="20" r=".93" class="cls-45"/><circle cx="30.36" cy="17.22" r=".9" class="cls-46"/><circle cx="30.65" cy="14.36" r=".86" class="cls-47"/><circle cx="30.46" cy="11.51" r=".82" class="cls-48"/><circle cx="29.78" cy="8.72" r=".79" class="cls-49"/><circle cx="28.64" cy="6.06" r=".75" class="cls-50"/><circle cx="27.02" cy="3.6" r=".72" class="cls-51"/><circle cx="24.94" cy="1.4" r=".68" class="cls-52"/><circle cx="13.71" cy="15.9" r="4.5" class="cls-1"/></g></svg>